:SAMPLES-PER-SECOND 30
:FULLY-SPECIFIED
:DEGREES
123
root  34.74500761 36.59304221 -13.91789294 10.34494114 -4.747713566 3.839170218
lowerback  -7.715060234 -0.114954941 -1.29668963
upperback  -4.001608849 0.4921399951 -4.521860123
thorax  0.2285410017 0.4418469965 -3.908469915
lowerneck  -7.559860229 -14.03489971 -9.371640205
upperneck  14.69410038 -19.64690018 12.69320011
head  7.989238739 -8.760139465 3.537055254
lclavicle  0 -4.497500157e-015 -2.743230041e-014
lhumerus  -47.64139938 30.96960068 61.76649857
lradius  0.001172923949 -6.507048965e-006 29.23480034
lwrist  3.192251654e-007 -3.790274832e-007 -29.88949966
lhand  -0 -36.83779907 -10.6086998
lfingers  90 7.125020027 -90
lthumb  94.77290516 -25.4479213 100.9965
rclavicle  0 -4.497500157e-015 -2.743230041e-014
rhumerus  7.847201824 -31.00650215 -39.22700119
rradius  -5.16745672e-007 2.214343908e-008 64.86940002
rwrist  0.0003490542294 -0.002273720223 -166.8679962
rhand  -1.771636887e-031 4.745969772 -5.534170151
rfingers  -90 -7.125020027 -90
rthumb  -83.96118872 -10.27509742 -59.32896236
rfemur  -10.92412376 14.16450882 12.09388256
rtibia  0.1129199043 -1.735776782 17.30580902
rfoot  2.106762648 -22.38720322 -33.6742897
rtoes  4.083322932 19.59545618 -102.0166354
lfemur  -1.919950724 -15.97840023 -23.74821472
ltibia  8.526729584 -0.6958118677 3.893074512
lfoot  0.2606333494 -19.52819633 36.20899582
ltoes  -8.512215241 -18.16562591 -115.6442615
124
root  34.74522688 36.58820625 -13.9227349 10.34657574 -4.752071857 3.844174147
lowerback  -7.72796011 -0.1031199321 -1.295820236
upperback  -4.000278473 0.5102040172 -4.537620068
thorax  0.2342174947 0.4514810145 -3.923990011
lowerneck  -7.537059784 -14.06400013 -9.39659977
upperneck  14.6864996 -19.68979836 12.72259998
head  7.9947052 -8.780035019 3.544569492
lclavicle  0 -4.497500157e-015 -2.743230041e-014
lhumerus  -47.63430023 30.93350029 61.76639938
lradius  0.001172923949 -6.507048965e-006 29.22642136
lwrist  3.192251654e-007 -3.790274832e-007 -29.85569954
lhand  -4.41623136e-031 -36.91009903 -10.67959976
lfingers  90 7.125020027 -90
lthumb  94.82177915 -25.51501397 101.0802528
rclavicle  0 -4.497500157e-015 -2.743230041e-014
rhumerus  8.684700966 -31.15640259 -39.27780533
rradius  -5.16745672e-007 2.214343908e-008 63.44100189
rwrist  0.0003490542294 -0.002273720223 -166.6629944
rhand  -1.771502993e-031 4.693520069 -5.419750214
rfingers  -90 -7.125020027 -90
rthumb  -83.91567908 -10.37096669 -59.36972204
rfemur  -10.95859241 14.12960148 12.08964348
rtibia  0.0972154066 -1.769489884 17.34546089
rfoot  2.091462851 -22.46393394 -33.63996506
rtoes  4.07987854 19.59614658 -102.0063654
lfemur  -1.925855875 -16.01956177 -23.75385094
ltibia  8.527638435 -0.7137334347 3.893776417
lfoot  0.2654407322 -19.48501587 36.22491837
ltoes  -8.515622349 -18.16407139 -115.6551904
125
root  34.7439413 36.58360759 -13.925252 10.34558201 -4.74027586 3.858115911
lowerback  -7.732520103 -0.09109329432 -1.31095016
upperback  -3.999332666 0.5281720161 -4.542479992
thorax  0.2410970032 0.460920006 -3.919039965
lowerneck  -7.519569874 -14.10449982 -9.429240227
upperneck  14.68902206 -19.74790955 12.74907494
head  7.999797821 -8.80673027 3.552560091
lclavicle  0 -4.497500157e-015 -2.743230041e-014
lhumerus  -47.65209961 30.96600151 61.75540161
lradius  0.001172923949 -6.507048965e-006 29.24581146
lwrist  3.192251654e-007 -3.790274832e-007 -29.79809952
lhand  -4.413698376e-031 -36.86629868 -10.68089962
lfingers  90 7.125020027 -90
lthumb  94.80151546 -25.51787425 101.0334935
rclavicle  0 -4.497500157e-015 -2.743230041e-014
rhumerus  9.571709633 -31.43090057 -39.3484993
rradius  -5.16745672e-007 2.214343908e-008 61.9457016
rwrist  0.0003490542294 -0.002273720223 -166.0910034
rhand  -1.771358111e-031 4.636089802 -5.488780022
rfingers  -90 -7.125020027 -90
rthumb  -83.96649753 -10.30875273 -59.43245224
rfemur  -10.95733166 14.12676144 12.07098866
rtibia  0.08779547364 -1.813141227 17.33906555
rfoot  2.074406624 -22.54072571 -33.67697144
rtoes  4.079629967 19.59619638 -102.0056242
lfemur  -1.926496625 -16.02999496 -23.76829147
ltibia  8.528488159 -0.7156635523 3.887161732
lfoot  0.2676522434 -19.48752594 36.21692276
ltoes  -8.559300695 -18.14407424 -115.7953768
126
root  34.74312429 36.58318107 -13.9287453 10.34317875 -4.744855881 3.880183458
lowerback  -7.732739925 -0.07553408295 -1.295910597
upperback  -3.99909997 0.5488280058 -4.552360058
thorax  0.2362799942 0.4713760018 -3.936290026
lowerneck  -7.48360014 -14.13599968 -9.448730469
upperneck  14.67099953 -19.79590225 12.79059982
head  8.003156662 -8.828410149 3.562239647
lclavicle  0 -4.497500157e-015 -2.743230041e-014
lhumerus  -47.64960098 30.88949966 61.77330017
lradius  0.001172923949 -6.507048965e-006 29.25180054
lwrist  3.192251654e-007 -3.790274832e-007 -29.74069977
lhand  -0 -36.80270004 -10.54679966
lfingers  90 7.125020027 -90
lthumb  94.74346546 -25.38839339 100.9533507
rclavicle  0 -4.497500157e-015 -2.743230041e-014
rhumerus  10.41990185 -31.65180016 -39.39440155
rradius  -5.16745672e-007 2.214343908e-008 60.38579941
rwrist  0.0003490542294 -0.002273720223 -165.7579956
rhand  -1.77079904e-031 4.407390118 -5.549409866
rfingers  -90 -7.125020027 -90
rthumb  -84.05735544 -10.24530881 -59.66219061
rfemur  -10.9450388 14.11880779 12.05038834
rtibia  0.07324422151 -1.860249758 17.3150425
rfoot  2.070400238 -22.60117531 -33.70229721
rtoes  4.04343648 19.60341374 -101.8977284
lfemur  -1.925737262 -16.07648849 -23.79157448
ltibia  8.529284477 -0.7550284863 3.874595881
lfoot  0.2652964592 -19.408041 36.23430634
ltoes  -8.574203639 -18.13722208 -115.8432422
